<?xml version="1.0" standalone="no"?>
<!DOCTYPE svg PUBLIC "-//W3C//DTD SVG 20010904//EN"
 "http://www.w3.org/TR/2001/REC-SVG-20010904/DTD/svg10.dtd">
<svg version="1.0" xmlns="http://www.w3.org/2000/svg"
 width="992.000000pt" height="251.000000pt" viewBox="0 0 992.000000 251.000000"
 preserveAspectRatio="xMidYMid meet">

<g transform="translate(0.000000,251.000000) scale(0.100000,-0.100000)"
fill="#000000" stroke="none">
<path d="M7651 2313 c-10 -36 -36 -184 -50 -285 l-7 -48 191 0 192 0 11 58 c6
31 14 82 17 112 4 30 13 82 21 115 7 33 14 66 14 73 0 9 -45 12 -190 12 l-189
0 -10 -37z"/>
<path d="M7196 1968 c-4 -14 -33 -191 -46 -274 -4 -29 -11 -61 -15 -73 -6 -21
-5 -21 188 -21 106 0 196 -2 199 -5 3 -3 -1 -34 -8 -68 -17 -80 -49 -249 -68
-357 -16 -94 -50 -277 -71 -385 -7 -38 -19 -101 -25 -140 -7 -38 -14 -80 -17
-93 l-5 -22 188 2 188 3 12 55 c7 30 20 100 29 155 9 55 25 143 35 195 10 52
25 133 34 180 8 47 22 121 31 165 9 44 20 109 26 145 5 36 14 81 19 100 21 74
31 70 -175 70 l-185 0 0 34 c0 19 8 85 19 148 10 62 22 132 25 156 l6 42 -190
0 c-144 0 -191 -3 -194 -12z"/>
<path d="M1216 1406 c-4 -222 -4 -542 0 -712 l8 -309 14 365 c10 286 11 440 2
710 -6 189 -12 346 -14 347 -2 2 -6 -178 -10 -401z"/>
<path d="M800 1728 c0 -17 3 -19 9 -9 12 18 45 6 77 -27 23 -24 25 -24 15 -4
-13 24 -43 46 -78 57 -19 5 -23 3 -23 -17z"/>
<path d="M160 1730 c0 -5 5 -10 10 -10 6 0 10 5 10 10 0 6 -4 10 -10 10 -5 0
-10 -4 -10 -10z"/>
<path d="M276 1711 c-4 -7 -5 -15 -2 -18 9 -9 19 4 14 18 -4 11 -6 11 -12 0z"/>
<path d="M300 1660 c0 -5 5 -10 10 -10 6 0 10 5 10 10 0 6 -4 10 -10 10 -5 0
-10 -4 -10 -10z"/>
<path d="M496 1661 c-3 -5 -17 -12 -32 -15 -67 -17 -134 -92 -134 -150 0 -16
-5 -26 -15 -26 -11 0 -15 12 -15 45 0 25 -4 45 -9 45 -5 0 -6 -20 -3 -45 4
-36 2 -45 -11 -45 -8 0 -36 -16 -61 -35 -52 -40 -58 -41 -80 -19 -9 8 -16 11
-16 5 0 -5 8 -14 18 -20 15 -9 15 -12 -11 -39 -18 -19 -25 -32 -18 -36 6 -4
11 0 11 8 0 9 4 16 8 16 5 0 22 13 38 30 16 16 35 30 42 30 6 0 12 4 12 8 0
13 48 32 80 32 29 0 30 -2 30 -46 0 -25 5 -55 11 -66 12 -23 -1 -38 -34 -38
-9 0 -37 -9 -62 -21 -26 -12 -53 -18 -67 -15 -13 3 -17 3 -10 0 19 -9 14 -28
-13 -54 -14 -13 -23 -26 -20 -28 3 -3 14 7 25 21 11 14 33 32 48 40 15 8 41
22 57 31 40 21 98 21 118 -2 15 -16 15 -20 -3 -47 -11 -17 -20 -37 -20 -45 0
-8 7 -1 16 15 22 44 31 50 49 35 28 -23 16 8 -16 42 -40 42 -59 87 -59 138 l0
40 65 0 c36 0 74 -6 85 -12 15 -10 22 -10 32 0 7 7 41 12 86 12 l74 0 -6 -57
c-6 -53 -11 -62 -59 -109 -67 -66 -77 -84 -76 -141 l1 -48 8 53 c7 46 14 59
56 98 45 43 50 45 88 38 56 -9 59 -11 53 -53 l-5 -36 11 38 c6 20 13 37 17 37
4 0 35 -26 71 -57 48 -44 69 -53 29 -13 -31 31 -32 40 -9 60 l24 20 -28 -10
c-23 -8 -44 -5 -108 17 -76 25 -90 35 -69 48 6 3 10 31 10 61 l0 54 35 0 c27
0 45 -9 75 -36 47 -43 116 -92 105 -74 -5 8 6 25 31 47 26 22 31 30 14 21 -14
-7 -29 -19 -33 -25 -20 -32 -95 6 -126 64 -16 32 -14 39 21 72 32 30 52 33 42
6 -5 -12 -1 -12 20 -2 14 7 20 14 13 16 -7 2 -16 10 -20 18 -6 10 -12 11 -21
3 -16 -12 -42 13 -31 30 8 13 61 13 86 0 17 -10 19 -7 18 22 -1 21 -3 25 -6
12 -3 -18 -10 -20 -51 -17 -62 5 -80 -6 -59 -38 15 -23 14 -26 -14 -53 -16
-16 -29 -33 -29 -38 0 -4 -16 -8 -35 -8 -33 0 -35 2 -35 34 0 19 -4 38 -10 41
-6 4 -10 -10 -10 -35 0 -39 -1 -41 -27 -38 -25 3 -29 8 -35 48 -4 25 -10 58
-14 74 -7 30 -4 30 37 2 8 -6 2 1 -15 16 -16 15 -42 30 -57 33 -16 4 -31 11
-34 16 -8 12 -32 12 -39 0z m103 -100 c6 -21 11 -51 11 -66 0 -25 -3 -27 -34
-23 -27 3 -36 0 -39 -14 -7 -23 -38 -23 -44 0 -3 14 -12 17 -34 14 -28 -4 -29
-3 -29 36 0 49 12 84 40 112 36 36 43 26 37 -55 -5 -64 -3 -75 10 -75 13 0 15
11 9 73 -4 40 -3 76 1 80 12 12 60 -42 72 -82z m-159 47 c-1 -7 -7 -24 -15
-38 -8 -14 -14 -42 -15 -62 0 -36 -2 -38 -31 -38 l-32 0 7 48 c4 35 14 54 36
75 33 29 50 34 50 15z"/>
<path d="M88 1653 c7 -3 16 -2 19 1 4 3 -2 6 -13 5 -11 0 -14 -3 -6 -6z"/>
<path d="M90 1595 c0 -8 5 -15 10 -15 6 0 10 7 10 15 0 8 -4 15 -10 15 -5 0
-10 -7 -10 -15z"/>
<path d="M305 1600 c3 -5 8 -10 11 -10 2 0 4 5 4 10 0 6 -5 10 -11 10 -5 0 -7
-4 -4 -10z"/>
<path d="M3752 1553 c-6 -27 -18 -93 -27 -148 -9 -55 -25 -143 -35 -195 -10
-52 -26 -138 -35 -190 -9 -52 -25 -138 -35 -190 -43 -217 -50 -257 -50 -278
l0 -22 354 0 354 0 7 48 c4 26 13 72 20 102 8 30 17 79 20 108 l7 52 -161 0
-161 0 0 28 c0 15 5 45 10 67 6 22 15 71 20 110 6 38 17 99 25 135 12 53 41
211 72 388 l6 32 -191 0 -190 0 -10 -47z"/>
<path d="M4886 1592 c-3 -5 -54 -105 -114 -223 -60 -118 -125 -243 -144 -279
-19 -36 -39 -74 -45 -85 -5 -11 -17 -33 -25 -50 -9 -16 -50 -97 -92 -180 -42
-82 -88 -170 -101 -195 l-24 -45 196 -3 c151 -2 198 1 205 10 4 7 18 39 29 71
l22 57 138 0 139 0 0 -70 0 -70 180 0 180 0 0 23 c0 12 -7 76 -16 142 -8 66
-19 156 -23 200 -5 44 -16 127 -24 185 -9 58 -23 168 -32 245 -9 77 -21 170
-27 208 l-10 67 -203 0 c-112 0 -206 -4 -209 -8z m154 -410 c0 -33 3 -107 7
-165 l6 -107 -71 0 c-39 0 -73 4 -76 9 -3 5 6 35 20 67 40 91 42 96 54 137 7
22 18 51 26 65 8 15 14 33 14 40 0 6 5 12 10 12 6 0 10 -26 10 -58z"/>
<path d="M5706 1589 c-10 -34 -29 -118 -36 -169 -15 -98 -41 -243 -55 -310 -8
-36 -21 -108 -30 -160 -9 -52 -24 -138 -35 -190 -10 -52 -21 -115 -25 -140 -3
-25 -9 -55 -12 -68 l-5 -22 188 2 188 3 7 35 c4 19 17 92 30 163 l24 127 110
0 c166 1 234 13 317 55 88 44 109 63 154 136 44 73 59 169 42 272 -14 84 -49
144 -111 185 -104 69 -170 81 -489 89 -215 5 -258 3 -262 -8z m429 -275 c46
-10 65 -32 65 -73 0 -69 -57 -111 -150 -111 l-52 0 6 33 c3 17 8 57 11 87 10
82 10 83 53 77 20 -3 51 -9 67 -13z"/>
<path d="M6744 1563 c-3 -21 -13 -69 -21 -108 -8 -38 -18 -99 -24 -135 -5 -36
-13 -85 -18 -110 -5 -25 -16 -83 -24 -130 -14 -78 -36 -195 -72 -390 -8 -41
-17 -94 -20 -117 l-7 -43 191 0 191 0 0 25 c0 23 11 89 45 265 8 41 17 100 21
130 4 30 11 66 16 79 4 12 15 66 23 120 9 53 22 131 30 174 38 197 44 233 45
255 l0 22 -185 0 -184 0 -7 -37z"/>
<path d="M8031 1554 c-7 -25 -19 -85 -27 -133 -8 -47 -17 -96 -21 -108 -5 -23
-4 -23 112 -23 106 0 116 -2 111 -17 -3 -10 -10 -52 -16 -93 -6 -41 -16 -92
-21 -113 -9 -36 -24 -116 -49 -272 -6 -33 -17 -89 -24 -125 -8 -36 -17 -82
-20 -103 l-5 -37 187 0 187 0 18 92 c10 51 22 116 27 143 5 28 18 104 30 170
11 66 27 158 35 205 8 47 19 99 23 115 l8 30 109 5 109 5 8 30 c7 26 22 109
45 243 l6 32 -411 0 -410 0 -11 -46z"/>
<path d="M8991 1553 c-5 -27 -13 -68 -16 -93 -4 -25 -13 -72 -20 -105 -7 -33
-21 -105 -30 -160 -9 -55 -23 -129 -31 -165 -16 -72 -41 -215 -54 -300 -4 -30
-13 -75 -19 -100 -6 -25 -11 -58 -11 -73 l0 -29 313 5 c290 5 392 14 432 38 6
4 26 12 46 18 32 10 159 118 159 134 0 3 7 37 15 76 13 61 13 76 -1 123 -19
67 -86 133 -146 143 -53 9 -49 31 8 40 60 9 117 50 144 103 19 38 22 56 18
132 -4 80 -7 90 -37 129 -44 56 -100 86 -201 111 -73 17 -118 20 -322 20
l-236 0 -11 -47z m450 -224 c14 -14 19 -30 17 -52 -4 -40 -50 -65 -124 -69
l-49 -3 3 35 c1 19 7 52 13 73 l10 37 54 0 c42 0 60 -5 76 -21z m-44 -391 c47
-44 16 -132 -50 -142 -18 -3 -56 -8 -86 -11 l-54 -6 7 70 c3 38 11 82 16 97
10 26 12 27 77 21 49 -5 72 -12 90 -29z"/>
<path d="M1637 1583 c-3 -5 -15 -66 -27 -137 -11 -71 -23 -132 -25 -136 -2 -3
-11 -49 -20 -101 -8 -52 -22 -130 -31 -174 -31 -164 -55 -292 -63 -345 -5 -30
-12 -72 -16 -92 l-7 -38 176 0 175 0 11 41 c6 23 22 91 35 151 12 61 29 114
36 119 8 5 64 9 126 9 62 0 136 5 165 11 138 30 257 124 291 229 21 65 22 199
2 265 -10 36 -28 62 -67 98 -99 92 -171 107 -508 107 -137 0 -251 -3 -253 -7z
m424 -264 c42 -14 59 -35 59 -72 0 -40 -14 -61 -55 -86 -35 -20 -127 -33 -141
-19 -3 4 2 48 11 97 l18 91 37 0 c20 0 52 -5 71 -11z"/>
<path d="M2587 1513 c-9 -38 -21 -98 -27 -135 -6 -37 -13 -75 -16 -83 -5 -13
10 -15 105 -15 124 0 118 5 101 -77 -18 -94 -40 -219 -51 -287 -5 -38 -12 -72
-13 -75 -2 -3 -14 -64 -25 -136 -12 -71 -23 -138 -25 -148 -4 -16 8 -17 182
-15 l186 3 27 160 c15 88 37 212 49 275 11 63 26 146 31 184 18 121 12 116
134 116 58 0 105 3 105 8 0 4 7 39 16 77 8 39 20 103 28 143 l12 72 -401 0
-402 0 -16 -67z"/>
<path d="M115 1559 c-2 -3 12 -5 31 -5 18 1 34 4 34 8 0 8 -60 6 -65 -3z"/>
<path d="M190 1566 c0 -2 7 -6 15 -10 8 -3 15 -1 15 4 0 6 -7 10 -15 10 -8 0
-15 -2 -15 -4z"/>
<path d="M100 1497 c0 -25 3 -48 8 -51 8 -5 6 84 -3 92 -3 3 -5 -15 -5 -41z"/>
<path d="M960 1465 c0 -8 4 -15 10 -15 5 0 7 7 4 15 -4 8 -8 15 -10 15 -2 0
-4 -7 -4 -15z"/>
<path d="M887 1430 c3 -11 12 -20 19 -20 12 0 12 4 2 20 -7 11 -16 20 -19 20
-4 0 -5 -9 -2 -20z"/>
<path d="M415 1390 c3 -5 16 -10 28 -10 18 0 19 2 7 10 -20 13 -43 13 -35 0z"/>
<path d="M585 1390 c-18 -8 -17 -9 8 -9 15 -1 27 4 27 9 0 12 -8 12 -35 0z"/>
<path d="M437 1159 c9 -79 23 -110 16 -39 -3 36 -9 69 -13 74 -5 5 -6 -11 -3
-35z"/>
<path d="M104 1143 c-35 -52 -44 -85 -44 -164 0 -79 16 -139 49 -186 29 -40
37 -27 35 52 -2 86 -14 116 -14 37 0 -60 -12 -66 -37 -19 -12 22 -17 56 -17
112 -1 75 12 122 51 188 12 20 -7 4 -23 -20z"/>
<path d="M655 1150 c3 -5 8 -10 11 -10 2 0 4 5 4 10 0 6 -5 10 -11 10 -5 0 -7
-4 -4 -10z"/>
<path d="M920 1123 c0 -4 5 -15 10 -23 8 -13 10 -13 10 2 0 9 -4 20 -10 23 -5
3 -10 3 -10 -2z"/>
<path d="M684 1090 c0 -13 4 -16 10 -10 7 7 7 13 0 20 -6 6 -10 3 -10 -10z"/>
<path d="M320 1060 c0 -5 5 -10 10 -10 6 0 10 5 10 10 0 6 -4 10 -10 10 -5 0
-10 -4 -10 -10z"/>
<path d="M580 1050 c20 -13 33 -13 25 0 -3 6 -14 10 -23 10 -15 0 -15 -2 -2
-10z"/>
<path d="M646 1045 c-19 -15 -19 -15 2 -15 13 0 22 6 22 15 0 18 0 18 -24 0z"/>
<path d="M242 1018 c-2 -26 -5 -28 -42 -28 -31 0 -38 -3 -34 -15 4 -8 1 -22
-6 -30 -11 -13 -7 -15 29 -15 32 0 41 -4 42 -17 0 -11 6 -5 15 15 8 17 18 32
23 32 6 0 12 -15 14 -32 3 -25 4 -21 5 16 2 43 0 48 -17 43 -16 -4 -21 1 -24
27 -4 29 -4 29 -5 4z m-22 -58 c0 -13 -7 -20 -20 -20 -13 0 -20 7 -20 20 0 13
7 20 20 20 13 0 20 -7 20 -20z"/>
<path d="M472 1020 c7 -11 21 -20 30 -20 9 0 21 -8 27 -17 6 -12 13 -15 20 -8
7 7 -7 19 -40 38 -43 24 -48 25 -37 7z"/>
<path d="M772 998 c-1 -21 -6 -38 -12 -38 -5 0 -10 -7 -10 -15 0 -11 -11 -15
-40 -15 -25 0 -40 -5 -40 -12 0 -10 28 -13 105 -13 77 0 105 3 105 13 0 8 -17
12 -49 12 l-50 0 -4 53 c-2 39 -4 43 -5 15z"/>
<path d="M953 965 c0 -22 2 -30 4 -17 2 12 2 30 0 40 -3 9 -5 -1 -4 -23z"/>
<path d="M578 973 c7 -3 16 -2 19 1 4 3 -2 6 -13 5 -11 0 -14 -3 -6 -6z"/>
<path d="M480 950 c-9 -6 -10 -10 -3 -10 6 0 15 5 18 10 8 12 4 12 -15 0z"/>
<path d="M645 950 c3 -5 11 -10 16 -10 6 0 7 5 4 10 -3 6 -11 10 -16 10 -6 0
-7 -4 -4 -10z"/>
<path d="M228 872 c-3 -9 -2 -26 2 -37 6 -15 8 -10 8 18 0 40 -3 47 -10 19z"/>
<path d="M670 880 c0 -5 7 -10 16 -10 8 0 12 5 9 10 -3 6 -10 10 -16 10 -5 0
-9 -4 -9 -10z"/>
<path d="M842 879 c-25 -10 -28 -50 -4 -55 7 -1 8 0 2 3 -19 9 -11 43 10 43
11 0 20 5 20 10 0 6 -1 10 -2 9 -2 0 -13 -4 -26 -10z"/>
<path d="M932 856 c-17 -45 -64 -90 -111 -106 -48 -15 -104 7 -126 51 -9 17
-19 29 -22 26 -8 -8 15 -44 42 -65 34 -27 31 -40 -10 -48 -29 -5 -43 -1 -75
20 l-40 26 -30 -22 c-17 -12 -30 -23 -30 -25 0 -6 22 8 43 25 16 15 20 14 43
-11 20 -22 34 -27 72 -27 27 0 57 7 68 15 10 8 28 15 40 15 12 0 38 12 59 26
21 14 44 23 52 20 8 -3 12 -2 9 2 -3 5 4 27 15 50 12 23 19 46 17 52 -2 6 -9
-5 -16 -24z"/>
<path d="M738 873 c7 -3 16 -2 19 1 4 3 -2 6 -13 5 -11 0 -14 -3 -6 -6z"/>
<path d="M282 845 c-17 -37 -14 -45 4 -12 9 16 14 31 11 33 -2 2 -9 -7 -15
-21z"/>
<path d="M712 850 c0 -14 2 -19 5 -12 2 6 2 18 0 25 -3 6 -5 1 -5 -13z"/>
<path d="M500 840 c0 -5 7 -10 16 -10 8 0 12 5 9 10 -3 6 -10 10 -16 10 -5 0
-9 -4 -9 -10z"/>
<path d="M230 786 c0 -12 -10 -16 -35 -16 -27 0 -33 -3 -29 -15 5 -12 10 -13
20 -4 17 14 44 5 44 -14 0 -8 7 -14 15 -14 9 0 15 10 15 24 0 14 -7 31 -15 39
-13 14 -15 14 -15 0z"/>
<path d="M60 750 c-61 -61 -53 -183 16 -235 27 -21 95 -18 167 6 39 13 76 19
100 16 21 -3 35 -1 31 4 -9 14 -97 10 -145 -7 -56 -19 -133 -21 -154 -4 -27
23 -45 67 -45 113 0 35 7 51 36 85 36 43 31 59 -6 22z"/>
<path d="M307 748 c-4 -14 -15 -28 -25 -30 -9 -3 2 -8 25 -12 25 -5 49 -3 60
3 15 9 13 10 -14 11 -27 0 -32 4 -35 28 l-3 27 -8 -27z"/>
<path d="M959 735 c26 -30 31 -44 31 -87 0 -60 -29 -111 -73 -129 -30 -13
-116 -2 -173 22 -24 9 -40 10 -65 2 l-34 -11 46 -1 c26 -1 63 -8 82 -16 53
-22 133 -19 172 5 42 26 69 90 60 140 -8 42 -39 96 -61 104 -9 3 -2 -10 15
-29z"/>
<path d="M409 742 c-15 -13 -19 -21 -11 -26 7 -4 12 -1 12 7 0 8 7 18 16 21
36 14 74 -49 74 -123 0 -41 5 -55 32 -85 17 -20 39 -36 47 -36 10 0 5 7 -12
18 -33 20 -42 48 -41 120 1 38 -2 52 -12 52 -8 0 -19 11 -24 24 -8 21 -37 46
-53 46 -3 0 -15 -8 -28 -18z"/>
<path d="M3290 680 c-11 -11 -21 -24 -21 -30 -1 -5 -2 -16 -3 -22 -4 -22 26
-66 48 -72 61 -16 106 13 106 69 0 66 -84 101 -130 55z"/>
<path d="M410 653 c0 -5 11 -8 25 -8 14 0 25 3 25 8 0 4 -11 7 -25 7 -14 0
-25 -3 -25 -7z"/>
<path d="M467 525 c-15 -14 -23 -25 -16 -25 10 0 49 37 49 47 0 6 -5 3 -33
-22z"/>
<path d="M607 519 c-5 -17 -3 -18 11 -7 9 7 18 13 20 14 2 1 -4 4 -12 7 -8 3
-16 -2 -19 -14z"/>
<path d="M400 515 c7 -8 17 -15 22 -15 6 0 5 7 -2 15 -7 8 -17 15 -22 15 -6 0
-5 -7 2 -15z"/>
<path d="M46 467 c9 -24 56 -30 254 -31 154 -1 181 -3 197 -18 18 -17 20 -17
36 0 15 15 41 17 195 18 97 1 192 4 210 8 34 8 40 0 22 -34 -20 -38 -51 -44
-227 -50 -149 -6 -175 -9 -193 -25 -20 -18 -22 -18 -53 0 -27 16 -59 20 -197
25 -104 3 -173 10 -187 18 -13 7 -23 9 -23 3 0 -5 18 -16 40 -25 30 -12 75
-16 173 -16 141 0 201 -11 211 -37 6 -15 8 -15 19 1 23 32 121 49 239 41 128
-8 168 2 198 49 26 43 28 82 3 70 -10 -5 -105 -9 -210 -10 -140 0 -200 -4
-218 -14 -20 -11 -27 -11 -41 0 -12 11 -59 14 -210 12 -166 -2 -198 0 -219 14
-23 15 -25 15 -19 1z"/>
</g>
</svg>
